<svg xmlns="http://www.w3.org/2000/svg" xml:space="preserve" viewBox="0 0 1080 1080">
  <path d="M427 364c24 13 33 44 19 70L308 693a51 51 0 0 1-69 23 51 51 0 0 1-20-70l139-260c14-25 44-35 69-22z"
    vector-effect="non-scaling-stroke" />
  <path d="M380 362c24-13 55-2 68 24l136 262c13 26 4 57-21 69-24 13-55 3-68-23L359 432c-13-26-4-57 21-70z"
    vector-effect="non-scaling-stroke" />
  <path fill="#305fb0"
    d="M659 366c25-13 55-2 69 24l135 262c13 26 4 57-21 69-24 13-55 3-68-23L638 436c-13-26-4-57 21-70z"
    vector-effect="non-scaling-stroke" />
  <path d="M705 366c25 13 33 44 20 70L586 695a51 51 0 0 1-69 23 51 51 0 0 1-19-70l138-260c14-25 45-35 69-22z"
    vector-effect="non-scaling-stroke" />
</svg>