<svg viewBox="-20 -5 390 200" preserveAspectRatio="xMidYMid meet" class="css-8aabad" id="aheagdcc"
    xmlns="http://www.w3.org/2000/svg">
    <defs id="SvgjsDefs1001"></defs>
    <g id="SvgjsG1007" featurekey="monogramFeature-0"
        transform="matrix(3.5736557324119014,0,0,3.5736557324119014,118.277606511371,-64.32580318341422)" fill="#fff">
        <path
            d="M27.694 18 l1.0798 0 l0 42 l-24.693 -29.429 l0 29.429 l-1.0804 0 l0 -42 l24.694 29.583 l0 -29.583 z M27.694 56.9008 l-0.00058594 -7.572 l-23.613 -28.212 l0 7.7169 z">
        </path>
    </g>
    <g id="SvgjsG1008" featurekey="nameFeature-0"
        transform="matrix(0.6093951680693255,0,0,0.6093951680693255,-2.0719433389698985,162.8822636698131)" fill="#fff">
        <path
            d="M22.96 12 c0.36 0 0.6 0.24 0.6 0.6 l0 26.8 c0 0.3 -0.18 0.52 -0.44 0.58 l0 0.02 l-2.1 0 c-0.32 0 -0.56 -0.12 -0.72 -0.4 l-14.4 -24.18 l0 23.98 c0 0.36 -0.24 0.6 -0.6 0.6 l-1.3 0 c-0.36 0 -0.6 -0.24 -0.6 -0.6 l0 -26.8 c0 -0.32 0.18 -0.54 0.46 -0.58 l0 -0.02 l2.08 0 c0.32 0 0.56 0.12 0.72 0.4 l14.4 24.14 l0 -23.94 c0 -0.36 0.24 -0.6 0.6 -0.6 l1.3 0 z M48.19 40.52 c-7.92 0 -14.3 -6.4 -14.3 -14.4 c0 -8.04 6.38 -14.44 14.3 -14.44 c7.88 0 14.26 6.4 14.26 14.44 c0 8 -6.38 14.4 -14.26 14.4 z M48.19 38.22 c6.62 0 11.86 -5.36 11.86 -12.1 c0 -6.78 -5.24 -12.14 -11.86 -12.14 c-6.66 0 -11.9 5.36 -11.9 12.14 c0 6.74 5.24 12.1 11.9 12.1 z M86.5 28.7 l5.6 10.6 c0.22 0.42 0.02 0.7 -0.44 0.7 l-1.48 0 c-0.32 0 -0.54 -0.14 -0.7 -0.44 l-5.56 -10.58 l-0.58 0 l-8.06 0 l0 10.42 c0 0.36 -0.24 0.6 -0.6 0.6 l-1.3 0 c-0.36 0 -0.6 -0.24 -0.6 -0.6 l0 -26.8 c0 -0.36 0.24 -0.6 0.6 -0.6 l9.96 0 c6.7 0 9.44 3.12 9.44 8.48 c0 4.44 -1.86 7.34 -6.28 8.22 z M75.28 26.619999999999997 l8.2 0 c3.98 0 6.84 -1.16 6.84 -6.14 s-2.86 -6.12 -6.84 -6.12 l-8.2 0 l0 12.26 z M121.91 12 c0.36 0 0.6 0.24 0.6 0.6 l0 1.16 c0 0.36 -0.24 0.6 -0.6 0.6 l-8.9 0 l0 25.04 c0 0.36 -0.24 0.6 -0.6 0.6 l-1.3 0 c-0.36 0 -0.6 -0.24 -0.6 -0.6 l0 -25.04 l-8.9 0 c-0.36 0 -0.6 -0.24 -0.6 -0.6 l0 -1.16 c0 -0.36 0.24 -0.6 0.6 -0.6 l20.3 0 z M152.3 12 c0.36 0 0.6 0.24 0.6 0.6 l0 26.8 c0 0.36 -0.24 0.6 -0.6 0.6 l-1.3 0 c-0.36 0 -0.6 -0.24 -0.6 -0.6 l0 -12.58 l-15.76 0 l0 12.58 c0 0.36 -0.24 0.6 -0.6 0.6 l-1.3 0 c-0.36 0 -0.6 -0.24 -0.6 -0.6 l0 -26.8 c0 -0.36 0.24 -0.6 0.6 -0.6 l1.3 0 c0.36 0 0.6 0.24 0.6 0.6 l0 11.86 l15.76 0 l0 -11.86 c0 -0.36 0.24 -0.6 0.6 -0.6 l1.3 0 z M211.2 12 c0.36 0 0.6 0.24 0.6 0.6 l0 26.8 c0 0.36 -0.24 0.6 -0.6 0.6 l-1.3 0 c-0.36 0 -0.6 -0.24 -0.6 -0.6 l0 -23.22 l-10.08 23.38 c-0.12 0.32 -0.34 0.44 -0.66 0.44 l-1.46 0 c-0.32 0 -0.54 -0.12 -0.66 -0.44 l-9.98 -23.16 l0 23 c0 0.36 -0.24 0.6 -0.6 0.6 l-1.3 0 c-0.36 0 -0.6 -0.24 -0.6 -0.6 l0 -26.8 c0 -0.36 0.24 -0.6 0.6 -0.6 l1.94 0 c0.32 0 0.6 0.12 0.72 0.4 l10.64 24.86 l10.58 -24.86 c0.12 -0.28 0.4 -0.4 0.72 -0.4 l2.04 0 z M240.43 37.64 c0.36 0 0.6 0.24 0.6 0.6 l0 1.16 c0 0.36 -0.24 0.6 -0.6 0.6 l-16.9 0 c-0.36 0 -0.6 -0.24 -0.6 -0.6 l0 -26.8 c0 -0.36 0.24 -0.6 0.6 -0.6 l16.86 0 c0.36 0 0.6 0.24 0.6 0.6 l0 1.16 c0 0.36 -0.24 0.6 -0.6 0.6 l-14.96 0 l0 9.62 l13.86 0 c0.36 0 0.6 0.24 0.6 0.6 l0 1.16 c0 0.36 -0.24 0.6 -0.6 0.6 l-13.86 0 l0 11.3 l15 0 z M268.76 37.64 c0.36 0 0.6 0.24 0.6 0.6 l0 1.16 c0 0.36 -0.24 0.6 -0.6 0.6 l-16.7 0 c-0.36 0 -0.6 -0.24 -0.6 -0.6 l0 -26.8 c0 -0.36 0.24 -0.6 0.6 -0.6 l1.3 0 c0.36 0 0.6 0.24 0.6 0.6 l0 25.04 l14.8 0 z M292.31 24.8 c4.08 1 5.68 4.08 5.68 7.14 c0 5.6 -3.26 8.06 -9.8 8.06 l-9 0 c-0.36 0 -0.6 -0.24 -0.6 -0.6 l0 -26.8 c0 -0.36 0.24 -0.6 0.6 -0.6 l9.2 0 c6.46 0 8.22 3.48 8.22 6.56 c0 2.82 -1.2 5.24 -4.3 6.24 z M294.11 18.64 c0 -2.92 -1.98 -4.28 -5.94 -4.28 l-7.08 0 l0 9.48 l7.32 0 c3.72 0 5.7 -2.04 5.7 -5.2 z M287.99 37.64 c4.84 0 7.4 -1.32 7.4 -5.66 c0 -3.24 -2.04 -5.9 -7.14 -5.9 l-7.16 0 l0 11.56 l6.9 0 z M321.21999999999997 40.52 c-7.92 0 -14.3 -6.4 -14.3 -14.4 c0 -8.04 6.38 -14.44 14.3 -14.44 c7.88 0 14.26 6.4 14.26 14.44 c0 8 -6.38 14.4 -14.26 14.4 z M321.21999999999997 38.22 c6.62 0 11.86 -5.36 11.86 -12.1 c0 -6.78 -5.24 -12.14 -11.86 -12.14 c-6.66 0 -11.9 5.36 -11.9 12.14 c0 6.74 5.24 12.1 11.9 12.1 z M366.66999999999996 12 c0.36 0 0.6 0.24 0.6 0.6 l0 16.08 c0 7.88 -4 11.9 -11.08 11.9 c-7.1 0 -11.08 -4.02 -11.08 -11.9 l0 -16.08 c0 -0.36 0.24 -0.6 0.6 -0.6 l1.3 0 c0.36 0 0.6 0.24 0.6 0.6 l0 16.08 c0 6.66 3.44 9.58 8.58 9.58 c5.12 0 8.58 -2.92 8.58 -9.58 l0 -16.08 c0 -0.36 0.24 -0.6 0.6 -0.6 l1.3 0 z M391.41999999999996 28.7 l5.6 10.6 c0.22 0.42 0.02 0.7 -0.44 0.7 l-1.48 0 c-0.32 0 -0.54 -0.14 -0.7 -0.44 l-5.56 -10.58 l-0.58 0 l-8.06 0 l0 10.42 c0 0.36 -0.24 0.6 -0.6 0.6 l-1.3 0 c-0.36 0 -0.6 -0.24 -0.6 -0.6 l0 -26.8 c0 -0.36 0.24 -0.6 0.6 -0.6 l9.96 0 c6.7 0 9.44 3.12 9.44 8.48 c0 4.44 -1.86 7.34 -6.28 8.22 z M380.19999999999993 26.619999999999997 l8.2 0 c3.98 0 6.84 -1.16 6.84 -6.14 s-2.86 -6.12 -6.84 -6.12 l-8.2 0 l0 12.26 z M426.98999999999995 12 c0.36 0 0.6 0.24 0.6 0.6 l0 26.8 c0 0.3 -0.18 0.52 -0.44 0.58 l0 0.02 l-2.1 0 c-0.32 0 -0.56 -0.12 -0.72 -0.4 l-14.4 -24.18 l0 23.98 c0 0.36 -0.24 0.6 -0.6 0.6 l-1.3 0 c-0.36 0 -0.6 -0.24 -0.6 -0.6 l0 -26.8 c0 -0.32 0.18 -0.54 0.46 -0.58 l0 -0.02 l2.08 0 c0.32 0 0.56 0.12 0.72 0.4 l14.4 24.14 l0 -23.94 c0 -0.36 0.24 -0.6 0.6 -0.6 l1.3 0 z M456.21999999999997 37.64 c0.36 0 0.6 0.24 0.6 0.6 l0 1.16 c0 0.36 -0.24 0.6 -0.6 0.6 l-16.9 0 c-0.36 0 -0.6 -0.24 -0.6 -0.6 l0 -26.8 c0 -0.36 0.24 -0.6 0.6 -0.6 l16.86 0 c0.36 0 0.6 0.24 0.6 0.6 l0 1.16 c0 0.36 -0.24 0.6 -0.6 0.6 l-14.96 0 l0 9.62 l13.86 0 c0.36 0 0.6 0.24 0.6 0.6 l0 1.16 c0 0.36 -0.24 0.6 -0.6 0.6 l-13.86 0 l0 11.3 l15 0 z M520.1600000000001 12 c0.44 0 0.58 0.28 0.48 0.68 l-7.14 26.84 c-0.08 0.32 -0.4 0.48 -0.72 0.48 l-1.92 0 c-0.32 0 -0.64 -0.16 -0.74 -0.48 l-6.98 -23.1 l-6.98 23.1 c-0.1 0.32 -0.4 0.48 -0.72 0.48 l-1.94 0 c-0.32 0 -0.64 -0.16 -0.72 -0.48 l-7.06 -26.84 c-0.12 -0.42 0.04 -0.68 0.48 -0.68 l1.26 0 c0.32 0 0.6 0.12 0.68 0.48 l6.28 24.6 l7.44 -24.6 c0.06 -0.22 0.18 -0.34 0.32 -0.42 c0.08 -0.04 0.2 -0.06 0.32 -0.06 l1.3 0 c0.12 0 0.24 0.02 0.32 0.06 c0.14 0.08 0.26 0.2 0.32 0.42 l7.44 24.6 l6.34 -24.6 c0.1 -0.36 0.36 -0.48 0.68 -0.48 l1.26 0 z M547.8100000000001 37.64 c0.36 0 0.6 0.24 0.6 0.6 l0 1.16 c0 0.36 -0.24 0.6 -0.6 0.6 l-16.9 0 c-0.36 0 -0.6 -0.24 -0.6 -0.6 l0 -26.8 c0 -0.36 0.24 -0.6 0.6 -0.6 l16.86 0 c0.36 0 0.6 0.24 0.6 0.6 l0 1.16 c0 0.36 -0.24 0.6 -0.6 0.6 l-14.96 0 l0 9.62 l13.86 0 c0.36 0 0.6 0.24 0.6 0.6 l0 1.16 c0 0.36 -0.24 0.6 -0.6 0.6 l-13.86 0 l0 11.3 l15 0 z M572.0600000000001 24.8 c4.08 1 5.68 4.08 5.68 7.14 c0 5.6 -3.26 8.06 -9.8 8.06 l-9 0 c-0.36 0 -0.6 -0.24 -0.6 -0.6 l0 -26.8 c0 -0.36 0.24 -0.6 0.6 -0.6 l9.2 0 c6.46 0 8.22 3.48 8.22 6.56 c0 2.82 -1.2 5.24 -4.3 6.24 z M573.86 18.64 c0 -2.92 -1.98 -4.28 -5.94 -4.28 l-7.08 0 l0 9.48 l7.32 0 c3.72 0 5.7 -2.04 5.7 -5.2 z M567.74 37.64 c4.84 0 7.4 -1.32 7.4 -5.66 c0 -3.24 -2.04 -5.9 -7.14 -5.9 l-7.16 0 l0 11.56 l6.9 0 z">
        </path>
    </g>
</svg>