<?xml version="1.0" encoding="UTF-8"?>
<svg xmlns="http://www.w3.org/2000/svg" id="Layer_1" data-name="Layer 1" viewBox="0 0 24 24">
  <path d="m11.598,18.522c.537.537.537,1.419-.004,1.96l-3.291,3.367c-.098.1-.228.15-.357.15-.126,0-.252-.047-.35-.143-.197-.193-.201-.51-.008-.707l3.079-3.15h-6.167c-2.481,0-4.5-2.019-4.5-4.5v-7c0-2.481,2.019-4.5,4.5-4.5h6c.276,0,.5.224.5.5s-.224.5-.5.5h-6c-1.93,0-3.5,1.57-3.5,3.5v7c0,1.93,1.57,3.5,3.5,3.5h6.166l-3.078-3.15c-.193-.197-.189-.515.008-.707.198-.194.515-.188.707.008l3.295,3.372Zm7.402-5.522c1.379,0,2.5,1.121,2.5,2.5s-1.121,2.5-2.5,2.5-2.5-1.121-2.5-2.5,1.121-2.5,2.5-2.5Zm0,1c-.827,0-1.5.673-1.5,1.5s.673,1.5,1.5,1.5,1.5-.673,1.5-1.5-.673-1.5-1.5-1.5Zm-2.5-11.5c0-1.379,1.121-2.5,2.5-2.5s2.5,1.121,2.5,2.5-1.121,2.5-2.5,2.5-2.5-1.121-2.5-2.5Zm1,0c0,.827.673,1.5,1.5,1.5s1.5-.673,1.5-1.5-.673-1.5-1.5-1.5-1.5.673-1.5,1.5Zm-3.057,8.497c.268.027.522-.166.554-.44.229-2.027,1.951-3.557,4.003-3.557s3.774,1.529,4.003,3.557c.029.255.245.443.496.443.02,0,.038,0,.058-.003.273-.031.472-.279.44-.554-.286-2.533-2.435-4.443-4.997-4.443s-4.709,1.91-4.997,4.443c-.031.274.166.522.44.554Zm4.557,8.003c-2.562,0-4.709,1.91-4.997,4.443-.031.274.166.522.44.554.268.025.522-.166.554-.44.229-2.027,1.951-3.557,4.003-3.557s3.774,1.529,4.003,3.557c.029.255.245.443.496.443.02,0,.038,0,.058-.003.273-.031.472-.279.44-.554-.286-2.533-2.435-4.443-4.997-4.443Z"/>
</svg>
