<?xml version="1.0" encoding="UTF-8"?>
<svg xmlns="http://www.w3.org/2000/svg" id="Layer_1" data-name="Layer 1" viewBox="0 0 24 24">
  <path d="m5,6c1.654,0,3-1.346,3-3S6.654,0,5,0s-3,1.346-3,3,1.346,3,3,3Zm0-5c1.103,0,2,.897,2,2s-.897,2-2,2-2-.897-2-2,.897-2,2-2Zm8,5c1.654,0,3-1.346,3-3s-1.346-3-3-3-3,1.346-3,3,1.346,3,3,3Zm0-5c1.103,0,2,.897,2,2s-.897,2-2,2-2-.897-2-2,.897-2,2-2Zm-2.101,10.301c-.166.221-.479.267-.7.099-.347-.262-.762-.399-1.199-.399-1.103,0-2,.897-2,2,0,.948.673,1.772,1.6,1.96.271.055.445.319.391.59-.048.237-.257.4-.49.4-.033,0-.066-.003-.1-.01-1.391-.282-2.4-1.519-2.4-2.94,0-1.654,1.346-3,3-3,.656,0,1.278.208,1.801.601.221.166.265.479.099.7Zm6.601-.301c-3.584,0-6.5,2.916-6.5,6.5s2.916,6.5,6.5,6.5,6.5-2.916,6.5-6.5-2.916-6.5-6.5-6.5Zm0,12c-3.033,0-5.5-2.468-5.5-5.5s2.467-5.5,5.5-5.5,5.5,2.468,5.5,5.5-2.467,5.5-5.5,5.5Zm3.35-6.857c.192.198.187.515-.012.707l-2.703,2.614c-.36.355-.835.533-1.311.533s-.949-.177-1.312-.531l-1.364-1.347c-.197-.193-.199-.51-.005-.707.194-.195.511-.198.707-.004l1.363,1.345c.337.329.886.327,1.223-.004l2.706-2.618c.199-.191.516-.187.707.012Zm-15.85-7.143c-2.206,0-4,1.794-4,4v.5c0,.276-.224.5-.5.5s-.5-.224-.5-.5v-.5c0-2.757,2.243-5,5-5,.572,0,1.133.096,1.667.284.26.093.396.378.304.639-.092.26-.378.396-.638.305-.426-.151-.875-.228-1.333-.228Zm10.916.536c-.097.144-.255.222-.416.222-.096,0-.192-.027-.278-.085-1.037-.693-2.39-.858-3.555-.445-.26.092-.546-.044-.638-.305-.092-.261.044-.546.304-.639,1.46-.516,3.148-.311,4.445.559.229.153.291.464.137.693Zm-6.918,8.937c.03.274-.167.521-.442.552-2.027.225-3.555,1.934-3.555,3.976v.5c0,.276-.224.5-.5.5s-.5-.224-.5-.5v-.5c0-2.553,1.911-4.689,4.445-4.97.286-.026.522.169.552.442Z"/>
</svg>
