<svg xmlns="http://www.w3.org/2000/svg" width="44" height="45" viewBox="0 0 44 45" fill="none">
    <g clip-path="url(#clip0_0_366)">
        <path
            d="M24.75 10.224C26.7667 10.224 28.4167 8.57396 28.4167 6.55729C28.4167 4.54062 26.7667 2.89062 24.75 2.89062C22.7333 2.89062 21.0833 4.54062 21.0833 6.55729C21.0833 8.57396 22.7333 10.224 24.75 10.224ZM17.9667 16.4573L13.2733 40.1256C13.035 41.244 13.915 42.3073 15.07 42.3073H15.2167C16.0783 42.3073 16.8117 41.7206 17.0133 40.8773L19.9833 27.6406L23.8333 31.3073V40.474C23.8333 41.4823 24.6583 42.3073 25.6667 42.3073C26.675 42.3073 27.5 41.4823 27.5 40.474V30.134C27.5 29.1256 27.0967 28.1723 26.3633 27.4756L23.65 24.8906L24.75 19.3906C26.7117 21.664 29.5533 23.2956 32.7433 23.809C33.8433 23.974 34.8333 23.094 34.8333 21.9756C34.8333 21.0773 34.1733 20.3256 33.275 20.179C30.4883 19.7206 28.1783 18.0706 26.95 15.9073L25.1167 12.974C24.09 11.3423 22.0367 10.6823 20.2583 11.434L13.2367 14.404C11.88 14.9906 11 16.3106 11 17.7956V22.1406C11 23.149 11.825 23.974 12.8333 23.974C13.8417 23.974 14.6667 23.149 14.6667 22.1406V17.7406L17.9667 16.4573Z"
            fill="#FF835D" />
    </g>
    <defs>
        <clipPath id="clip0_0_366">
            <rect width="44" height="44" fill="white" transform="translate(0 0.140625)" />
        </clipPath>
    </defs>
</svg>